<svg xmlns="http://www.w3.org/2000/svg" viewBox="0 0 111.41 86.33"><defs><style>.cls-1{fill:#883431;}.cls-2{fill:#893430;}.cls-3{fill:#893432;}.cls-4{fill:#843530;}.cls-5{fill:#853431;}.cls-6{fill:#843631;}.cls-7{fill:#813630;}.cls-8{fill:#8a3132;}.cls-9{fill:#8a3033;}.cls-10{fill:#7d3930;}.cls-11{fill:#f9f4ef;}.cls-12{fill:#743333;}.cls-13{fill:#f9f3ee;}.cls-14{fill:#723637;}.cls-15{fill:#753634;}.cls-16{fill:#7b222a;}.cls-17{fill:#733630;}.cls-18{fill:#752f33;}.cls-19{fill:#743331;}.cls-20{fill:#fbf0ea;}.cls-21{fill:#813731;}.cls-22{fill:#793033;}.cls-23{fill:#70342d;}.cls-24{fill:#631612;}.cls-25{fill:#7e362d;}.cls-26{fill:#6c3332;}.cls-27{fill:#693434;}.cls-28{fill:#6f3534;}.cls-29{fill:#672d2d;}.cls-30{fill:#f7f3ec;}.cls-31{fill:#8b3132;}.cls-32{fill:#82382f;}.cls-33{fill:#6e332d;}.cls-34{fill:#7d3732;}.cls-35{fill:#57231d;}.cls-36{fill:#f9eced;}.cls-37{fill:#6e3533;}.cls-38{fill:#753830;}.cls-39{fill:#70141a;}.cls-40{fill:#f9f3f2;}.cls-41{fill:#6c3132;}.cls-42{fill:#69302f;}.cls-43{fill:#51251e;}.cls-44{fill:#663931;}.cls-45{fill:#732c2a;}.cls-46{fill:#63312c;}.cls-47{fill:#581c17;}.cls-48{fill:#f5eae9;}.cls-49{fill:#773c3d;}.cls-50{fill:#6f3d35;}.cls-51{fill:#874c4b;}.cls-52{fill:#6a2d31;}.cls-53{fill:#68131c;}.cls-54{fill:#592b28;}.cls-55{fill:#f7eeee;}.cls-56{fill:#662122;}.cls-57{fill:#721b16;}.cls-58{fill:#5b1918;}.cls-59{fill:#f4e6e3;}.cls-60{fill:#f5e9e5;}.cls-61{fill:#f6e6e4;}.cls-62{fill:#f6e7e4;}.cls-63{fill:#f4e4e2;}.cls-64{fill:#7f3730;}.cls-65{fill:#f4e5e7;}.cls-66{fill:#7a3a33;}.cls-67{fill:#f4e7e7;}.cls-68{fill:#773436;}.cls-69{fill:#743932;}.cls-70{fill:#6f332e;}.cls-71{fill:#733331;}.cls-72{fill:#783930;}.cls-73{fill:#723030;}.cls-74{fill:#f6e6e7;}.cls-75{fill:#6f3939;}.cls-76{fill:#793533;}.cls-77{fill:#fef1ec;}.cls-78{fill:#713835;}.cls-79{fill:#7e342f;}.cls-80{fill:#742f32;}.cls-81{fill:#6d3634;}.cls-82{fill:#6b3635;}.cls-83{fill:#733e31;}.cls-84{fill:#643734;}.cls-85{fill:#6b2e2f;}.cls-86{fill:#6b2e30;}.cls-87{fill:#682829;}.cls-88{fill:#f5e3e1;}.cls-89{fill:#641f20;}.cls-90{fill:#612924;}.cls-91{fill:#5c221d;}.cls-92{fill:#e5e7e9;}.cls-93{fill:#8d3132;}.cls-94{fill:#863338;}.cls-95{fill:#f6e2e2;}.cls-96{fill:#713b32;}.cls-97{fill:#8b3536;}.cls-98{fill:#f4e5e3;}.cls-99{fill:#7c272d;}.cls-100{fill:#773524;}.cls-101{fill:#7f382a;}.cls-102{fill:#7f3633;}.cls-103{fill:#72332e;}.cls-104{fill:#733b37;}.cls-105{fill:#7c3837;}.cls-106{fill:#8f3039;}.cls-107{fill:#703936;}.cls-108{fill:#76332d;}.cls-109{fill:#743833;}.cls-110{fill:#732932;}.cls-111{fill:#72393a;}.cls-112{fill:#783535;}.cls-113{fill:#662c28;}.cls-114{fill:#5c2721;}.cls-115{fill:#622725;}.cls-116{fill:#663833;}.cls-117{fill:#f6dfdf;}.cls-118{fill:#fef6f2;}.cls-119{fill:#762b30;}.cls-120{fill:#6a1719;}.cls-121{fill:#83372f;}.cls-122{fill:#8f3632;}.cls-123{fill:#f3e2e1;}.cls-124{fill:#6c3533;}.cls-125{fill:#6f3334;}.cls-126{fill:#f8ecea;}.cls-127{fill:#743737;}.cls-128{fill:#723535;}.cls-129{fill:#703730;}.cls-130{fill:#6d3935;}.cls-131{fill:#6d2f2d;}.cls-132{fill:#663b35;}.cls-133{fill:#8a332e;}.cls-134{fill:#f1e7e7;}.cls-135{fill:#f1e6e7;}.cls-136{fill:#6f302c;}.cls-137{fill:#933235;}.cls-138{fill:#4c3122;}.cls-139{fill:#623732;}.cls-140{fill:#561e17;}.cls-141{fill:#8d302f;}.cls-142{fill:#f3e8e2;}.cls-143{fill:#f5e4e2;}.cls-144{fill:#783533;}.cls-145{fill:#91373a;}.cls-146{fill:#76312b;}.cls-147{fill:#6f3125;}.cls-148{fill:#481519;}.cls-149{fill:#753333;}.cls-150{fill:#88342d;}.cls-151{fill:#81382e;}.cls-152{fill:#ddebe7;}.cls-153{fill:#f8ddf1;}.cls-154{fill:#ece6ee;}.cls-155{fill:#f2e3e0;}.cls-156{fill:#f3e7e5;}.cls-157{fill:#ede2de;}.cls-158{fill:#68302c;}.cls-159{fill:#f5e3e3;}.cls-160{fill:#e0ebe6;}.cls-161{fill:#ece4ea;}.cls-162{fill:#5d3738;}.cls-163{fill:#893433;}.cls-164{fill:#86352c;}.cls-165{fill:#763735;}.cls-166{fill:#f5e6e4;}.cls-167{fill:#f7e4e1;}.cls-168{fill:#f2e7e3;}.cls-169{fill:#f1e7e0;}.cls-170{fill:#f6eae6;}.cls-171{fill:#8c383e;}.cls-172{fill:#dbe8e5;}.cls-173{fill:#f2e3e5;}.cls-174{fill:#f5e5e2;}.cls-175{fill:#f5e6e9;}.cls-176{fill:#5e2e2c;}.cls-177{fill:#dbede8;}.cls-178{fill:#d8efe4;}.cls-179{fill:#f1e2e8;}.cls-180{fill:#dbeceb;}.cls-181{fill:#f2e1e7;}.cls-182{fill:#f9faf3;}.cls-183{fill:#70302e;}.cls-184{fill:#6f1c1a;}.cls-185{fill:#683b38;}.cls-186{fill:#ede3dd;}.cls-187{fill:#cfd0c8;}.cls-188{fill:#6f3533;}.cls-189{fill:#6e3632;}.cls-190{fill:#fef4f3;}.cls-191{fill:#f8f2eb;}.cls-192{fill:#712726;}.cls-193{fill:#f9fcf9;}.cls-194{fill:#d6f2de;}.cls-195{fill:#422526;}.cls-196{fill:#87342f;}.cls-197{fill:#f1e1ef;}.cls-198{fill:#813635;}.cls-199{fill:#efe6e3;}.cls-200{fill:#8c2c39;}.cls-201{fill:#dfe8e5;}.cls-202{fill:#791825;}.cls-203{fill:#f2eae7;}.cls-204{fill:#d9efe6;}.cls-205{fill:#6c2d2a;}.cls-206{fill:#fefbf4;}.cls-207{fill:#690f1a;}.cls-208{fill:#72191e;}.cls-209{fill:#cb717c;}.cls-210{fill:#f5faf3;}.cls-211{fill:#dcf5e3;}.cls-212{fill:#5b2626;}.cls-213{fill:#ecd7d9;}.cls-214{fill:#622522;}.cls-215{fill:#773031;}.cls-216{fill:#7a3b39;}.cls-217{fill:#85282b;}.cls-218{fill:#64342e;}.cls-219{fill:#643531;}.cls-220{fill:#6a3439;}.cls-221{fill:#783235;}.cls-222{fill:#632e2d;}.cls-223{fill:#6c3138;}.cls-224{fill:#913235;}.cls-225{fill:#6a322d;}.cls-226{fill:#6b3027;}.cls-227{fill:#643e3c;}.cls-228{font-size:19px;font-family:MVBoli, MV Boli;}</style></defs><g id="Layer_2" data-name="Layer 2"><g id="Layer_1-2" data-name="Layer 1"><path class="cls-1" d="M67.17,2.63a3.25,3.25,0,0,1,1.7-1.14.91.91,0,0,0,.94-.32A1.51,1.51,0,0,1,71,.74c.31,0,.69.12.91-.26A1.29,1.29,0,0,1,73,.3c1,.14,1.93-.1,2.9,0C77,.34,78,1.2,79.19,1a1,1,0,0,1,.91.54l.29.38c.5.41,1,.76,1.56,1.12a1.41,1.41,0,0,1,.52.83,2.41,2.41,0,0,1-2.58.85,1.16,1.16,0,0,1-.39-.31,6.25,6.25,0,0,0-3.68-1.6c-1.13-.08-2.26,0-3.39,0A5.22,5.22,0,0,0,70,3.57a6.19,6.19,0,0,0-2.88,2,4.43,4.43,0,0,1-1,.86A4.33,4.33,0,0,0,65.3,7c-.53.34-.71,1-1.1,1.39-.87,1-.85,1-1.76.16a20.09,20.09,0,0,0-5.88-1.18,14.3,14.3,0,0,0-4.38,0,5,5,0,0,0-1.73.15,5.65,5.65,0,0,1-2,.31,4.83,4.83,0,0,0-3.58.92,1.18,1.18,0,0,1-.29.16c-.49.16-.91-.12-1.54-.24.33.45.73.82.34,1.29a1.65,1.65,0,0,1-.5.45c-1.51,1-1.69,2.6-1.67,4.24,0,.09.09.1.21,0,.35.11.39.41.44.7a3.25,3.25,0,0,1,0,.54c-.18.89-.73,1.07-1.52.83a1,1,0,0,1-.42-.57,5.34,5.34,0,0,0-.6-1.72c-.51-1.25-.71-1.33-2-.79a2.4,2.4,0,0,1-1.19.39c.16.19.69-.14.66.39-.46.52-1,.35-1.61.3-1.79-.46-3.38.31-5,.86A8.61,8.61,0,0,0,27,16.91a1.07,1.07,0,0,1-.31.13c-.81-.19-1.43-.12-1.32,1a3.12,3.12,0,0,0-1,2.54c.22-.17-.44-1,.49-.73A2.64,2.64,0,0,1,25,21.44a3,3,0,0,1-.25.65c-.4.61-.38,1.39-.81,2a.66.66,0,0,1-.32.12c-.49-.05-.66-.48-.95-.77-.19-1.59-.85-3.17,0-4.75a4.27,4.27,0,0,1,.67-1.82,3.82,3.82,0,0,1,1.47-1.78,1.35,1.35,0,0,0,.94-.44,5.72,5.72,0,0,1,.46-.4h0c.09-.23.34-.14.49-.25a.21.21,0,0,0,.21-.06l.15,0c.23-.05.48,0,.65-.22a.44.44,0,0,1,.17-.19L30,12.83c1.82.05,3.51-.61,5.28-.86,1.11-.11,2.22-.19,3.34-.25.59,0,1-.22,1-.91a1.28,1.28,0,0,1,.55-1.12c1.13-1.31,2.2-2.7,3.94-3.27l.23.06c.6.15.6.16.52-.43l.51-.21a3.08,3.08,0,0,0,1.88-.56h0A8.76,8.76,0,0,1,49,5.14a.8.8,0,0,1,.32.19c.47.8,1.18.67,1.9.5a19.82,19.82,0,0,1,7.56,0A9.31,9.31,0,0,0,60,6a14.08,14.08,0,0,1,3.49.23.47.47,0,0,1,.13-.39c.46.15.56-.34.85-.48a3.54,3.54,0,0,0,.84-1c.25-.3.28-.76.68-.95S66.89,3.08,67.17,2.63Z"/><path class="cls-2" d="M26.18,27,26,26.93c-.23-.18-.59-.12-.74-.43-.68-.12-.92-.68-1.19-1.21s-.59-.74-.23-1.24h0c.55-.09.64-.61.89-1a.39.39,0,0,1,.3,0c.35.27.52.75,1,.89a1.26,1.26,0,0,1,.33.32c.19.47.63.62,1,.8l.27.15c.85.67,1.84.2,2.75.36a1.21,1.21,0,0,1,.46.83c-.06.32-.45.36-.55.65a1.45,1.45,0,0,0,0,.29c.5.9,1,1.82,2.09,2.12a1,1,0,0,1,.3.14,10.4,10.4,0,0,1,2.13,4,2.27,2.27,0,0,0,1,2.15,5.89,5.89,0,0,1,.66,2.4,16.59,16.59,0,0,0,.11,2c-.07.86.37,1,1.09.76A11.13,11.13,0,0,0,40,40a6.52,6.52,0,0,1,3.34-.82A1.41,1.41,0,0,0,45,38.78a14.54,14.54,0,0,1,5-1.21,17.93,17.93,0,0,0,4.68-.4c2.83,0,5.66,0,8.49,0a2.85,2.85,0,0,1,1.29.17.47.47,0,0,1,.22.55c-.34.53-.9.37-1.39.42-.7.07-1.42-.16-2.09.19a2.88,2.88,0,0,0-.24.5.76.76,0,0,1-.23.3,1,1,0,0,1-.37.16c-1.19-.05-2.44.41-3.57-.33a1.21,1.21,0,0,0-1.4-.82,5.22,5.22,0,0,0-2.22.28c-.92.36-2-.24-2.85.55.87-.75,1.94-.3,2.91-.47a2.65,2.65,0,0,1,1.71.16.51.51,0,0,1,.15.53c-.48.64-1.34.16-1.86.64a3.44,3.44,0,0,1-.66.34,5.36,5.36,0,0,1-.54.14,8.4,8.4,0,0,1-2.06.23,2.5,2.5,0,0,1-.71-.15c-.77-.56-1.7-.23-2.54-.44.28.09.63.08.64.51-.77.8-1.87.5-2.78.83-.19.07-.53-.17-.57.24-.58.72-1.55.36-2.23.82a3.48,3.48,0,0,1-1,.11c-1.3-.23-2.48.46-3.75.49-.81.89-1.59,1.18-2.05-.25-.32.14-.31.27-.34.39-.1.43.07,1.12-.66,1a1.06,1.06,0,0,1-.83-1.16,2.43,2.43,0,0,1,0-.6,1.09,1.09,0,0,1,.76-.64,4.66,4.66,0,0,0,.7-4.48c0,.86,0,1.46,0,2,0,.38.09.91-.56,1l-.43-1.46a3.19,3.19,0,0,1-.47-1.47,1.15,1.15,0,0,0-.24-1.17,3.41,3.41,0,0,1-.46-1.56A2.74,2.74,0,0,0,31.63,33,2.51,2.51,0,0,1,31,31.73h0a.79.79,0,0,1-.24-.4,1.72,1.72,0,0,0-.37-1A9.35,9.35,0,0,0,29,28.06a2.39,2.39,0,0,0-.6-.5l-.48-.17C27.36,27.16,26.68,27.45,26.18,27Z"/><path class="cls-3" d="M85.63,9l0,.67a5.37,5.37,0,0,0,0,2.15,5.46,5.46,0,0,1-1.14,3.37,17.59,17.59,0,0,0-.75,1.66v0c-.4.33-.51-.18-.77-.25a.4.4,0,0,0-.49.23c-.06.23.22.29.34.44.3.72-.35.9-.73,1.16s-.8.37-1,.75c-1.06.39-1,1.37-1.14,2.23l-1.62,5.29a6.37,6.37,0,0,0-1,2.63,12.56,12.56,0,0,0-.68,3.5,2.44,2.44,0,0,1-.33.86c-.71-.15-.57-.76-.6-1.21a7.17,7.17,0,0,0-.38-2.17c-.12-.55,0-1.12-.18-1.66a5.59,5.59,0,0,1,.44-1.93,5.56,5.56,0,0,1,.57-1.27,2.35,2.35,0,0,0,1-2.38.92.92,0,0,1,.29-.72c.62,0,.23-.57.45-.79,0-.38.53-.68.13-1.1-1.07-.2-2.2-.17-3.09-.94.12-.66.72-.63,1.16-.82a4.9,4.9,0,0,0,1.18-.49,7.47,7.47,0,0,0,1.51-1,9.75,9.75,0,0,1,1-.57,2.08,2.08,0,0,0,1.23-1.58,1.28,1.28,0,0,1,.55-.93c.18,0,.37,0,.32-.29a1.75,1.75,0,0,1,.33-.94,1.86,1.86,0,0,0,.29-.49c0-.09.08-.18.12-.27l.2-.4a4.31,4.31,0,0,0,0-1.89,1.35,1.35,0,0,1,0-.49,3.33,3.33,0,0,0-.13-2.07A.81.81,0,0,1,83,7c.46-.27.34-.89.73-1.2.73.19.57,1.06,1.08,1.42.13.29.16.63.28.93a2,2,0,0,1,.19.77s-.07.1,0,.08,0,0,.07-.1S85.61,8.87,85.63,9Z"/><path class="cls-4" d="M75.58,30.29A3.52,3.52,0,0,1,76,32.42c0,.41-.14.89.24,1.24.2.09.09.35.24.47-.12,1.07-.28,2.14-.36,3.21-.07.89-.42,1.79.11,2.68a.73.73,0,0,1-.18.88,1,1,0,0,0-.49,1.28,1.55,1.55,0,0,1-.5,1.08h0c-.25.2,0,.65-.35.79-.28-.21-.4.43-.7.13a.92.92,0,0,1-.15-.62,2.81,2.81,0,0,1,.18-.56c-.11.14-.18.37-.44.23a1.48,1.48,0,0,1-.33-.92c0-.36.17-.76-.36-.89a1.47,1.47,0,0,1-.88-.38c-.43-.57-1-.25-1.49-.23-1.06-.07-2.09-.33-3.15-.44a5.29,5.29,0,0,0-1.73-.14A2.21,2.21,0,0,1,64.34,40c-.14-.79.68-.18.86-.58.11,0-.19-.06-.07,0a14.36,14.36,0,0,1-1.59.3,7.84,7.84,0,0,1-2.82-.57v-.23c.49-.45,1.1-.29,1.68-.33s1.34.15,1.95-.22a1.39,1.39,0,0,1,.35-.16,8.81,8.81,0,0,1,4.11.24,11.21,11.21,0,0,0,2.25.19c.17,0,0-.25.12-.38.72-.64,1.44.09,2.17,0a.91.91,0,0,1,.33.1,2,2,0,0,1,.27.44c-.17.56-.9.16-1.14.64a.89.89,0,0,0,1-.91,9.52,9.52,0,0,1-.38-1.39,11.41,11.41,0,0,1,.47-3.58,1.44,1.44,0,0,1,.19-.31c.48-.39.48-1,.62-1.5S74.71,30.44,75.58,30.29Z"/><path class="cls-5" d="M33.37,42.52c0,.64,0,1.27.77,1.57.46-.52,0-1.24.43-1.86.34.62,1.49.43,1.22,1.53.78.05.28-1,1-1a.59.59,0,0,1,.16.59c-.24.56.39.69.54,1.06.37.67,1,1.25,1,2.1.23,1.61.23,1.6,1.79,1.48a7.76,7.76,0,0,0,1.15-.22c.68,0,1.45-.36,1.92.49a2.55,2.55,0,0,1-1.34.11c.81.28,1.8-.38,2.75.08a.8.8,0,0,1,.5.32c-.09.53-.53.49-.91.55-.85.14-1.7.26-2.54.44a3.53,3.53,0,0,0-2.28.7c-.54.1-.6-.43-.9-.66a3.51,3.51,0,0,0-.93-.91c-.2.34-.06.77-.32,1.05s-.42,0-.55-.22l0-.37a6.56,6.56,0,0,1-.23-1.25c-.17-.93-.25-1.88-.49-2.79s-1.1-.71-1.8-.54a3.46,3.46,0,0,1-.57-.31l-.28-.25a1.42,1.42,0,0,1-.43-.51.44.44,0,0,1,0-.23C33.23,43.24,32.7,42.6,33.37,42.52Z"/><path class="cls-6" d="M41.85,56a12.79,12.79,0,0,1-3,.4.24.24,0,0,1,0-.29.9.9,0,0,1,.44-.18c-.59-.19-1.71,0-1.78-1.34.43-.12.23-.63.52-.83a.59.59,0,0,1,.32-.08,3,3,0,0,1,.64.2c1,.36,1.94-.13,2.91,0,.58.13,1.19,0,1.75.12.76.17,1.68.2,1.79,1.3-.84.62-1.86.21-2.76.49a7.82,7.82,0,0,1-1.51.05c-.23-.05-.15-.24-.11-.12C41.24,56.05,41.69,55.7,41.85,56Z"/><path class="cls-7" d="M57.9,54.82a31.23,31.23,0,0,1-4.74.22c-1.34.34-2.68-.18-4-.1.38,0,.83-.34,1,.33l-.08,0-.08,0a8.92,8.92,0,0,1-1.79.08l-.36,0c-.47-.64-1.17-.15-1.75-.37-.92-.34-1.07-.66-.51-1.54a1.23,1.23,0,0,1,.78-.08c.92.27,1.9,0,2.81.27a20,20,0,0,0,5.61.45,3.39,3.39,0,0,1,2,.1.39.39,0,0,1,.16.33.68.68,0,0,1-.78,0C56.67,55,57.41,54.15,57.9,54.82Z"/><path class="cls-8" d="M56.88,4.37a4.59,4.59,0,0,1,2,.22c-.14.19-.36.11-.54.14.13,0,.29,0,.41.08s.17.41,0,.62a14,14,0,0,1-3.3.14,40,40,0,0,0-4.51.13,2,2,0,0,1-1.69-.37h0a.36.36,0,0,1,0-.51h0c1.18-.14,2.38-.11,3.55-.33C54.11,4.25,55.5,4.57,56.88,4.37Z"/><path class="cls-9" d="M69.59,54.77H60.24c.19-.72.8-.53,1.27-.54,1.8,0,3.59,0,5.39,0a3.82,3.82,0,0,0,1.3-.11c1.22-.3,2.49.09,3.72-.26a1.74,1.74,0,0,1,.33-.18,2.91,2.91,0,0,1,.93-.13c.53.09,1.15-.11,1.56.44a.63.63,0,0,1-.12.37,3,3,0,0,1-2.25.4A8.64,8.64,0,0,0,69.59,54.77Z"/><path class="cls-10" d="M34.07,40.39c.53-.72.15-1.54.27-2.31.06-.46-.14-.95.15-1.39,1.33,1.57,1,3.58-.4,5.36-.09-.1-.25-.12-.29-.26C34.32,41.4,34,40.86,34.07,40.39Z"/><path class="cls-11" d="M32.63,34.73c-.09.62.46,1,.54,1.58a1.36,1.36,0,0,1,.22.94l.25,1.68c-.87-.19-.63-.94-.88-1.44-.47-.92-.06-1.93-.73-2.81a4.14,4.14,0,0,1-1-2.95l.75,1.21A3.54,3.54,0,0,1,32.63,34.73Z"/><path class="cls-12" d="M76.54,32.94c-.15-2,.63-3.81,1.2-5.66a.73.73,0,0,1,.54-.57c-.56,2.35-1.13,4.69-1.69,7A.62.62,0,0,1,76.54,32.94Z"/><path class="cls-13" d="M25,15.22a3,3,0,0,0-1.44,1.59,5.93,5.93,0,0,0-.83,1.55.17.17,0,0,1-.21.16A1.2,1.2,0,0,1,22.75,17c.67-.81,1.24-1.7,1.93-2.49.37-.42,1.05,0,1.53-.31l-.26.46C25.62,14.84,25.43,15.25,25,15.22Z"/><path class="cls-2" d="M34.15,44.7c1.11-.77,1.46-.69,2.11.48a.85.85,0,0,1-.5.93,2.63,2.63,0,0,1-.48.06l-.92-1C34.21,45,33.93,45,34.15,44.7Z"/><path class="cls-14" d="M39.79,10.83c.46,1-.26,1.18-1,1.21-1.17.05-2.34,0-3.52,0a.38.38,0,0,1-.53,0c.91-.54,2-.27,2.93-.48C38.38,11.27,39.29,11.63,39.79,10.83Z"/><path class="cls-15" d="M34.77,12l.53,0c-1.75.29-3.38,1.43-5.27.77A14.17,14.17,0,0,1,34.77,12Z"/><path class="cls-16" d="M68.39,54.3c-.31.36-.73.23-1.11.23H61.36c-.38,0-.8-.12-1.12.22h-1a.26.26,0,0,1,.06-.36,2.52,2.52,0,0,1,1-.4c2.31-.1,4.63,0,7,0A1.33,1.33,0,0,1,68.39,54.3Z"/><path class="cls-17" d="M74.11,49.25a5.14,5.14,0,0,1,0,1.66.42.42,0,0,1,0,.54c-.63-.1-.52-.69-.71-1.07a17.06,17.06,0,0,1,.08-4.57A.46.46,0,0,1,74,45.5a.54.54,0,0,1,.36.16l-.23,1.69A4.35,4.35,0,0,0,74.11,49.25Z"/><path class="cls-18" d="M69.59,54.77c.89-.49,1.85-.16,2.78-.22a4.78,4.78,0,0,0,2.26-.49.22.22,0,0,1,.32,0,1.25,1.25,0,0,1-1.46.91C72.19,54.9,70.89,54.84,69.59,54.77Z"/><path class="cls-19" d="M58.8,5.09c-.22-.35-.64-.14-1-.33.32-.28.7-.08,1-.17a13.67,13.67,0,0,1,3.78.77.29.29,0,0,1,0,.35A6.7,6.7,0,0,1,58.8,5.09Z"/><path class="cls-20" d="M39.79,10.83c-.42,1.05-1.3.76-2.09.72.25-.38.42-.94,1-.37.11.1.57.11.44-.26-.39-1.05.3-1.13,1-1.23C40.06,10.07,39.93,10.45,39.79,10.83Z"/><path class="cls-21" d="M75,54.08l-.32,0,0-.24a2.3,2.3,0,0,1-.94-3.36c.38.21.09.75.47,1s0,.9.52,1.12C74.87,53,75.31,53.49,75,54.08Z"/><path class="cls-22" d="M22.82,18.53c-.86,1.68-.13,3.35,0,5l-.14.08c-.39-.18-.13-.6-.32-.85a6.68,6.68,0,0,1,.13-4.26.35.35,0,0,1,.11,0C22.68,18.43,22.74,18.42,22.82,18.53Z"/><path class="cls-23" d="M47.77,55.25H48q.1.09.06.15a.09.09,0,0,1-.08.06,20.8,20.8,0,0,1-3.94.3,3.23,3.23,0,0,1-1.16.07l-.17-.1c.79-.63,1.84.15,2.64-.48A2.7,2.7,0,0,1,47.77,55.25Z"/><path class="cls-24" d="M56.88,4.37c-1.41.54-2.88.1-4.32.25-.25.09-.29,0-.24-.24A17.85,17.85,0,0,1,56.88,4.37Z"/><path class="cls-25" d="M82.77,17.33c-.3-.06-.8.14-.74-.43s.75-.63,1.15-.75,0,.37.17.5.26.14.39.21l-.35.51A.51.51,0,0,1,82.77,17.33Z"/><path class="cls-26" d="M36.74,49.74l.47.24a6.4,6.4,0,0,1,.1,4.1.58.58,0,0,1-.57.5.66.66,0,0,1,0-.65l0-.35c.23-.42,0-.91.21-1.34Z"/><path class="cls-27" d="M82.77,17.33l.62,0a5.21,5.21,0,0,1-2,1.9.6.6,0,0,1-.47-.26,1.62,1.62,0,0,1,1-.72A1,1,0,0,0,82.77,17.33Z"/><path class="cls-28" d="M79.23,1.22c-1.16.25-2.13-.37-3.17-.69a.21.21,0,0,1,0-.32,2.28,2.28,0,0,1,1.63.31,1.68,1.68,0,0,0,.93.34C79,.81,79.22.83,79.23,1.22Z"/><path class="cls-29" d="M35.28,46.17l.27-.27c.79.4.65,1.37,1.18,1.92l0,1.55C36.23,48.31,35.75,47.24,35.28,46.17Z"/><path class="cls-30" d="M75.1,43.26l.26-1.17c.3-.28.07-.94.71-1,.41,1-.4,1.66-.56,2.5C75.47,43.87,75.37,43.24,75.1,43.26Z"/><path class="cls-31" d="M50.17,55.27c-.28-.45-.83-.08-1.24-.41,1.47-.3,2.84.3,4.23.18A12,12,0,0,1,50.17,55.27Z"/><path class="cls-32" d="M52.32,4.38l.24.24a8.39,8.39,0,0,1-3.38.21A11.51,11.51,0,0,1,52.32,4.38Z"/><path class="cls-33" d="M80.87,19a.49.49,0,0,1,.47.26c-1,.34-1.12,1.32-1.44,2.15A2,2,0,0,1,80.87,19Z"/><path class="cls-34" d="M23.79,24.05,24,25.29a2.26,2.26,0,0,1-1.26-1.46.18.18,0,0,1,.06-.25l0,0Z"/><path class="cls-35" d="M76.06.31V.53C75,.41,74,.81,73,.3L75,.08C75.34.29,75.76,0,76.06.31Z"/><path class="cls-36" d="M79.23,1.22,78.67.86c.49-.42,1-.18,1.47,0s0,.46,0,.68Z"/><path class="cls-37" d="M36.71,53.93l0,.62c.36.45.32,1,.54,1.53a.39.39,0,0,1-.31.36C35.59,55.74,36.46,54.8,36.71,53.93Z"/><path class="cls-38" d="M44.88,6.05c.08.21.41.25.36.55s.21.47-.11.6-.32-.18-.38-.38-.57,0-.62-.4A1.2,1.2,0,0,1,44.88,6.05Z"/><path class="cls-39" d="M59.52,54.54v.23l-1.38,0-2-.1c.29-.33.66-.11,1-.19A2.18,2.18,0,0,1,59.52,54.54Z"/><path class="cls-40" d="M81.78,2.71c1.24-.56,1,.64,1.27,1.12L82.93,4c-.57-.08-.73-.65-1.12-.94a.26.26,0,0,1-.07-.2C81.75,2.74,81.76,2.71,81.78,2.71Z"/><path class="cls-36" d="M76.06.31,75,.08c.91.1,1.93-.45,2.71.44Z"/><path class="cls-41" d="M47.27,5.28a1.48,1.48,0,0,1-1.88.56A4.77,4.77,0,0,1,47.27,5.28Z"/><path class="cls-32" d="M49.19,4.82l0,.51-2,0A3.91,3.91,0,0,1,49.19,4.82Z"/><path class="cls-42" d="M81.78,2.71l0,.23c.08.05.1.1.08.15s0,.07-.08.07c-.54-.33-1.26-.45-1.42-1.23l.43.06a1,1,0,0,1,.73.52Z"/><path class="cls-11" d="M30,30l.45.55c.3.18.34.51.46.79l0,.38A1.44,1.44,0,0,1,30,30Z"/><path class="cls-43" d="M37,56.44l.24-.22a1.23,1.23,0,0,1,1.68,0,1.48,1.48,0,0,1,0,.21C38.26,56.55,37.62,56.86,37,56.44Z"/><path class="cls-44" d="M74.66,52.55c-.49-.15-.49-.15-.52-1.12,0-.18,0-.35,0-.52C74.64,51.36,74.57,52,74.66,52.55Z"/><path class="cls-45" d="M76.07,41.12c-.35.24-.24.82-.71,1-.2-.82-.09-1,.73-1.19A.55.55,0,0,1,76.07,41.12Z"/><path class="cls-46" d="M74.33,45.16h-.18a1.11,1.11,0,0,1-.23-1.11.62.62,0,0,1,.23-.32c.2,0,.2-.57.52-.18a.63.63,0,0,1,0,.65Z"/><path class="cls-47" d="M33.8,41.79l.29.26a.78.78,0,0,0-.72.47c-.38.21-.07.75-.44,1C32.7,42.65,32.81,42,33.8,41.79Z"/><path class="cls-48" d="M26.18,27l1.73.4C27.32,27.31,26.61,27.76,26.18,27Z"/><path class="cls-49" d="M67.17,2.63c-.13.68-.58.87-1.21.77C66.31,3.07,66.61,2.64,67.17,2.63Z"/><path class="cls-50" d="M62.56,5.58V5.36a1.16,1.16,0,0,1,1,.44v.49A.76.76,0,0,1,62.56,5.58Z"/><path class="cls-21" d="M74.11,49.25a2,2,0,0,1,0-1.9Z"/><path class="cls-51" d="M48,55.47c0-.07,0-.14,0-.21l2,0A5.46,5.46,0,0,1,48,55.47Z"/><path class="cls-52" d="M42.3,56.45l-.78-.11v-.18h1.66c.07,0,.1.09.08.13s0,.07-.08.07Z"/><path class="cls-36" d="M81.55,2.51A1.29,1.29,0,0,1,80.82,2C81.42,1.65,81.64,1.86,81.55,2.51Z"/><path class="cls-30" d="M74.64,44.7l0-.65.43-.79A1.64,1.64,0,0,1,74.64,44.7Z"/><path class="cls-53" d="M71.93.48c-.21.44-.49.61-.91.26A1.39,1.39,0,0,1,71.93.48Z"/><path class="cls-54" d="M29.07,27.89l-.27.25c-.28-.08-.37-.31-.41-.58C28.79,27.31,28.91,27.64,29.07,27.89Z"/><path class="cls-55" d="M34.15,44.7l.21.47c-.62.16-.75-.19-.74-.69C33.86,44.39,34,44.62,34.15,44.7Z"/><path class="cls-13" d="M27.88,13.5a1.74,1.74,0,0,0-.1.19.77.77,0,0,1-.88.35v-.11C26.91,13.06,27.57,13.68,27.88,13.5Z"/><path class="cls-13" d="M26.7,14a.58.58,0,0,1-.49.25c0-.21-.54-.23-.19-.52S26.46,13.91,26.7,14Z"/><path class="cls-56" d="M65.28,4.35c0,.55-.39.79-.84,1C64.68,5,64.76,4.46,65.28,4.35Z"/><path class="cls-48" d="M22.82,23.58l-.06.25c-.86-.08-.21-.72-.38-1Z"/><path class="cls-48" d="M25.21,26.5l.74.43C25.7,26.79,25.07,27.3,25.21,26.5Z"/><path class="cls-57" d="M76.54,32.94l0,.8-.07.39-.24-.47C76.31,33.4,76.26,33.11,76.54,32.94Z"/><path class="cls-6" d="M42.74,55.94a1.34,1.34,0,0,1,0-.2l1.33,0A2.49,2.49,0,0,1,42.74,55.94Z"/><path class="cls-55" d="M32.91,43.72c.18.14.45.2.43.51a2.54,2.54,0,0,1-.34.24C32.79,44.25,32.94,44,32.91,43.72Z"/><path class="cls-58" d="M69.81,1.17c-.24.31-.46.7-.94.32A1.18,1.18,0,0,1,69.81,1.17Z"/><path class="cls-37" d="M37,52.24c-.05.45.18.94-.21,1.34A2.67,2.67,0,0,1,37,52.24Z"/><path class="cls-32" d="M62.63,5.58l1,.71c.13,0,.43-.14.36,0-.16.4-.68.65-1,.35-.54-.62-1.17-.32-1.75-.35-2.71-.12-5.4-.64-8.14-.54-1,0-1.9.68-3,.57-.73-.08-1-.29-.93-1,2.78,0,5.57,0,8.35,0,.42,0,.89.16,1.24-.23A6.93,6.93,0,0,1,62,5.7C62.22,5.82,62.42,5.65,62.63,5.58Z"/><path class="cls-59" d="M40.09,16.13l.32.47c.32.15.72.22.76.69a4.28,4.28,0,0,0-.3,1,.54.54,0,0,1-.29.15.76.76,0,0,1-.33-.05,2.28,2.28,0,0,1-.7-.53,1,1,0,0,1-.09-.34c-.35-1.93-1.28-2.69-3.16-2.44-1.49.19-2.94.62-4.41,1-.67.15-1.39.48-1.92-.31.13-.24.38-.32.6-.45a15.56,15.56,0,0,1,4.49-.83,5.74,5.74,0,0,0,1.75-.19,1.84,1.84,0,0,1,2.55.21C39.57,15,39.9,15.55,40.09,16.13Z"/><path class="cls-60" d="M26.18,24.35l-.29-.29a2.26,2.26,0,0,1-.81-1,1.52,1.52,0,0,1-.34-1.41l0-1.91a.76.76,0,0,1,.21-1,2,2,0,0,0,.56-1c.25-.5.81-.58,1.21-.88a.76.76,0,0,0,.21,0,.64.64,0,0,1,.49-.16.55.55,0,0,1,.29.18c.18.61-.36.73-.69,1a3.56,3.56,0,0,0-1.4,3.91c.16.73.31,1.53,1.46,1.53.7,0,.88.82,1.11,1.41a.69.69,0,0,1,0,.32.78.78,0,0,1-.52.35.23.23,0,0,1-.26-.13l0,0A4.37,4.37,0,0,1,26.18,24.35Z"/><path class="cls-61" d="M79.66,4.82l.29.26A3.39,3.39,0,0,1,81.2,6.24a.82.82,0,0,1,0,.35.6.6,0,0,1-.46.48,9.64,9.64,0,0,0-5.75-3,4,4,0,0,0-2.06,0,6.77,6.77,0,0,0-2,.49c-.44.14-.89.28-1.32.45s-.73.34-.86-.25c.16-.6.75-.56,1.15-.81A6.34,6.34,0,0,1,73,3.16h2a2.83,2.83,0,0,1,1,.09C77.22,3.69,78.63,3.81,79.66,4.82Z"/><path class="cls-62" d="M56.64,7a26.25,26.25,0,0,1,6.2,1.19c.31.62-.2,1.22,0,1.93.34-.1.44-.55.79-.58s.5.28.57.59a1.63,1.63,0,0,1-1.36,1.45c-.66.11-1.08-.35-1.33-.94a1.38,1.38,0,0,1-.06-.53c0-.4.37-.68.35-1.09a3.48,3.48,0,0,0-2.64-1,5.42,5.42,0,0,1-2.46-.7A.24.24,0,0,1,56.64,7Z"/><path class="cls-63" d="M64.06,10.13l-.42-.48c.06-1.13,1-1.74,1.5-2.65.31-.22.53-.57.91-.69L67,5.5c.35-.34.55-.92,1.22-.73.27.27.8.36.77.82s-.6.4-.92.59a11.31,11.31,0,0,0-3.12,3C64.64,9.53,64.53,10,64.06,10.13Z"/><path class="cls-64" d="M81.09,5.82A3.77,3.77,0,0,1,80,4.61a4.39,4.39,0,0,0,2.35-.72c.46-.15.6.36.92.48l.54.8,0,.64a1.58,1.58,0,0,1-.49,1.44,1.37,1.37,0,0,1-.46-.94c-.06-1-.51-1-1.22-.57A1.1,1.1,0,0,1,81.09,5.82Z"/><path class="cls-65" d="M48.27,7.51l2.07-.28a3.94,3.94,0,0,1,1.41-.08c.23.68-.38.59-.69.73-.57.26-1.26.06-1.79.47-1.49.3-2.91.89-4.43,1.06a.78.78,0,0,1-.36-.13c-.28-.3,0-.44.19-.57h0A8.15,8.15,0,0,1,48.27,7.51Z"/><path class="cls-66" d="M39.35,14.74c-.22-.65-.76-.52-1.26-.51l-1.28,0-1.35-.1c1-.1,1.63-1.09,2.58-1.08.48,0,1.61-.67,1.27.81,0,.08.19.23.3.34C39.43,14.35,39.56,14.63,39.35,14.74Z"/><path class="cls-67" d="M44.38,9.16h.27A7.65,7.65,0,0,1,42.41,12c-.08,0-.15,0-.09.05a.25.25,0,0,1,0,.23c-.47,1-.08,2.13-.5,3.13a.21.21,0,0,1-.31.05l-.27-.71a4.24,4.24,0,0,1,1.57-4.54l.34-.34C43.55,9.52,43.76,9,44.38,9.16Z"/><path class="cls-68" d="M65.3,7.1,63.64,9.65c-.47.22-.33,1.31-1,1s0-1,0-1.47a7.09,7.09,0,0,1,.22-.91c.38.15.19.58.39.82.86-.62,1-1.83,2-2.28A.21.21,0,0,1,65.3,7.1Z"/><path class="cls-69" d="M42.86,10.16a6,6,0,0,0-1.57,4.54,1.42,1.42,0,0,1,0,.36c0,.11-.1.15-.2,0-.53-.76-.24-1.47-.05-2.27a4.52,4.52,0,0,1,1.31-2.45C42.45,10.22,42.68,10.22,42.86,10.16Z"/><path class="cls-70" d="M35.06,14.44l-4.57,1a.3.3,0,0,1-.46,0C31.62,14.62,33.22,13.9,35.06,14.44Z"/><path class="cls-71" d="M79.66,4.35,76.05,3C76,2.9,76,2.84,76,2.78s0-.09.06-.09A4.6,4.6,0,0,1,79.66,4.35Z"/><path class="cls-72" d="M44.38,9.16l-1.18.66c0-.28.27-.64-.3-.68-.37,0-.46-.31-.35-.61s.52-.38.78-.21a2.17,2.17,0,0,0,1.34.39Z"/><path class="cls-73" d="M41.09,17.27l-.68-.67c.45-.16,1.18.09,1.15-.78.61.16.83.66,1,1.17,0,.32.16.68-.2.93A1.2,1.2,0,0,1,41.09,17.27Z"/><path class="cls-74" d="M42.49,16.84l-.93-1.27v-.41h.21a.58.58,0,0,1,.72.27A4,4,0,0,0,43.88,17a.67.67,0,0,1,.19.86c-.19.41-.5.46-.86.2C43.18,17.52,42.61,17.31,42.49,16.84Z"/><path class="cls-75" d="M48.27,7.51,44.66,8.72C45.57,7.42,46.91,7.45,48.27,7.51Z"/><path class="cls-76" d="M25.72,17.81l-1,1.93c-.45.39,0,1-.43,1.55a17.61,17.61,0,0,0,0-2.2c-.12-.82,1.07-.54,1-1.27A.33.33,0,0,1,25.72,17.81Z"/><path class="cls-77" d="M56.64,7v.21a8,8,0,0,1-4.43.16A.28.28,0,0,1,52.08,7,15.49,15.49,0,0,1,56.64,7Z"/><path class="cls-78" d="M72.87,2.91a10.56,10.56,0,0,0-3,.73c-.07-.05-.09-.1-.07-.15s0-.08.07-.08a4.38,4.38,0,0,1,2.4-1c.21.23.56,0,.78.24C73.05,2.82,73,2.89,72.87,2.91Z"/><path class="cls-79" d="M25.72,18.16h-.49c0-1.52,0-1.52,1.47-.95C26.63,17.8,26,17.82,25.72,18.16Z"/><path class="cls-80" d="M30,15.73h.46L30,16a.85.85,0,0,1-.65.51,14.19,14.19,0,0,1-2,.67h-.43C27.67,16.07,28.86,15.93,30,15.73Z"/><path class="cls-81" d="M69.83,3.41v.23c-.29.3-.79.23-1,.63s-.22.67-.68.63-.76.47-1.19.6C67.47,4.2,68.69,3.86,69.83,3.41Z"/><path class="cls-34" d="M24.75,23.09c0,.64,0,1.29-1,1,.24-.63.2-1.38.7-1.92A.62.62,0,0,1,24.75,23.09Z"/><path class="cls-82" d="M73.05,2.74c-.29-.06-.62,0-.82-.29,1.27.12,2.58-.27,3.83.24V3l-.82-.06C74.51,2.67,73.76,2.93,73.05,2.74Z"/><path class="cls-83" d="M23.29,20.81c.36.12.43.44.47.74s-.06.55-.43.56a.42.42,0,0,1-.48-.52A.87.87,0,0,1,23.29,20.81Z"/><path class="cls-84" d="M39.35,14.74c0-.2,0-.4.26-.52,0,.68.75,1.17.48,1.91A2.11,2.11,0,0,1,39.35,14.74Z"/><path class="cls-85" d="M22.82,18.53l-.2,0a1.8,1.8,0,0,1,.93-1.74A5.68,5.68,0,0,1,22.82,18.53Z"/><path class="cls-86" d="M83.22,4.37c-.4,0-.6-.35-.92-.48l-.49-.73a1.61,1.61,0,0,0,0-.22l1.2,1Z"/><path class="cls-87" d="M24.75,23.09a1.57,1.57,0,0,0-.26-1,.52.52,0,0,1,.25-.48l.53,1.43a.2.2,0,0,1-.29,0Z"/><path class="cls-88" d="M52.08,7v.22a.15.15,0,0,1-.23,0l-1.51,0A4.11,4.11,0,0,1,52.08,7Z"/><path class="cls-89" d="M26.9,14l.89-.35C27.68,14.31,27.33,14.28,26.9,14Z"/><path class="cls-90" d="M25,15.22c.3-.22.52-.58,1-.53C25.68,15,25.61,15.57,25,15.22Z"/><path class="cls-91" d="M65.3,7.1c0-.11,0-.22,0-.33a.73.73,0,0,1,.79-.46A1.69,1.69,0,0,1,65.3,7.1Z"/><path class="cls-92" d="M68.14,4.9c.22-.22.34-.55.68-.63.21.41.52,0,.77.1.38-.21.9-.06,1.2-.48A3.23,3.23,0,0,1,73,3.41a4.35,4.35,0,0,1,2.15,0,7.34,7.34,0,0,1,5.76,3.12A8.55,8.55,0,0,1,82.1,7.84c.48,1.48,1.19,2.92.71,4.55a.1.1,0,0,1,0,.14c-.35,0-.15.31-.24.46l-.48,1a.35.35,0,0,1-.28.12,14.08,14.08,0,0,0-2.22,2.59c-.13.39-.62.39-.8.73a.87.87,0,0,1-.55.3,18.3,18.3,0,0,0-2.29.81c-1.19.31-2.27,1-3.55.91-.52-.42-1-.19-1.43.14-.09.07-.47-.06-.22.29a1.3,1.3,0,0,0,.29.44,3.65,3.65,0,0,0,.66.22,3.84,3.84,0,0,0,1.22.38,5,5,0,0,0,2.62,0,18.76,18.76,0,0,0,3-.62c.69.61-.54.84-.27,1.37a2,2,0,0,1-.48.69.84.84,0,0,0-.25.67,6.43,6.43,0,0,1-1.1,2.51l-.5,1.32a.48.48,0,0,1-.21-.42c-.33,2-1.13,4.07-1.35,6.31a15.13,15.13,0,0,0-.9,4.5c0,.8-.39,1.16-1.1,1-2.12-.53-4.3-.67-6.42-1.15-1.21-.26-2.51.17-3.76-.16a29.63,29.63,0,0,1-4.21-.14l-.05,0,.05.12a.4.4,0,0,1-.18.29,1.27,1.27,0,0,1-.9,0,1.47,1.47,0,0,0-1.24-.22,15.37,15.37,0,0,1-3.46.19s0,.1,0,.08c.27-.11.53-.16.71.15a5.88,5.88,0,0,1-2.9.49l-4.58.95c-.2,0-.2.21-.24.35a5.56,5.56,0,0,1-1.67.32c-1.11.19-2.29.1-3.25.87-.74-.23-1.34.4-2.05.35-1.22.14-1.51-.36-1.73-2a11.92,11.92,0,0,0-.88-3.76,3.22,3.22,0,0,0-.72-.94.87.87,0,0,1-.23-.31,16.32,16.32,0,0,0-2.21-4,1.22,1.22,0,0,0-.8-.64,3.13,3.13,0,0,1-1-1.33,1.49,1.49,0,0,1,.26-.84,2.76,2.76,0,0,1,1.5-1.16,4.18,4.18,0,0,0,2.08-2.28c.4-.7,0-1-1.06-1a.64.64,0,0,1-.16-.29.54.54,0,0,1,.54-.64c-1,.08-1.66.88-2.62,1.09-.63.13.17,1-.22,1.38-1.1,1.15-1.65,1.31-2.81.82-.58,0-.12-.65-.54-.75s-.33-1-1-.43c-.3.24-.48,0-.64-.3-1.18-1.95-1.13-4.62,1.28-5.94.24-.13.4-.23.43-.5a12,12,0,0,0,1.68-.94l.71-.26a1.48,1.48,0,0,0,1.58.16,35.89,35.89,0,0,1,3.82-.9,5.05,5.05,0,0,1,1.27-.22A3.09,3.09,0,0,1,40,16.88c.17.44-.43.55-.34.93-.38.33-.61-.14-.91-.18-.08.49.57.68.46,1.18a.84.84,0,0,1-.61.18c-.79.19-.53.68-.32,1.16.05.26.24.31.47.29.63.43.68,1.23,1.15,1.77a9.28,9.28,0,0,0,2.92,2.17c.72.58,1.8.74,2.2,1.79a1.79,1.79,0,0,1,1.23-.57c.67.06,1.29.33,1.95.42a13.13,13.13,0,0,0,5.11-.27,6.35,6.35,0,0,0,2.08-.83,7.84,7.84,0,0,0,1.85-1,9.44,9.44,0,0,0,2.49-2.51A4.07,4.07,0,0,1,60.2,21c.72-.64,1.61-1.2,1-2.44a16.22,16.22,0,0,0-3,2.93c-1.4.8-2.71,1.82-4.4,1.92-.53,0-.46.46-.69.68a1.72,1.72,0,0,1-1.49.25,14.19,14.19,0,0,0-2.26-.23,21.26,21.26,0,0,0-4.19-.81,1.84,1.84,0,0,1-.65-.17,7.53,7.53,0,0,1-2.26-1.23c-.26-.32-.78-.42-.86-.91.48-.29.13-.49-.07-.71a1.3,1.3,0,0,1,0-.85.58.58,0,0,1,.21-.26c.23-.15.53-.11.8-.32-.26-.22-.57-.08-.83-.15a1,1,0,0,1-.73-.37c-.31-.45-.3-.81.28-1,.48.15.84.6,1.41.55.33-.17.54,0,.71.27s.42.26.61,0,.17-.58,0-.63c-1.13-.28-1.21-1.53-2-2.09.07-.94-.29-2,.16-2.8a24.29,24.29,0,0,1,2.14-2.87,7.8,7.8,0,0,1,.58-.57c1.55-.17,3-1,4.55-1a1.41,1.41,0,0,1,1.43-.09c.29,1.08-.6.67-1,.83a32.13,32.13,0,0,1,3.54-.12h3.61c1.24-.16,2.54.34,3.73-.35.37-.14.74-.31.86.29a.83.83,0,0,1-.53.67c.09.08-.52,0,0,.16.22.42.32.94.91,1,1,1.19,1.28,1.14,2.39-.48.63-1.71,2.13-2.7,3.28-4,.4-.45,1-.13,1.37-.47C68.83,5.13,67.79,5.59,68.14,4.9Z"/><path class="cls-92" d="M43.28,48.26a7,7,0,0,0-2.23-.18,3.51,3.51,0,0,1-1.29.09c-.26-.12-.25-.32,0-.4a1.92,1.92,0,0,1,.9-.08h-1c-.34,0-.65-.05-.74-.44-.29-1.14-1.16-1.95-1.69-3-.37-.64.13-.72.55-.86a21,21,0,0,1,3.66-1,.28.28,0,0,0,.25-.22c.65-.58,1.58-.21,2.28-.65a4.07,4.07,0,0,1,2.21-.51,3.46,3.46,0,0,0,1.24-.19c.28-.09.57-.16.84-.26.56-.2,1.17,0,1.72-.26l2.1-.22c.48.2,1,0,1.43.1.21,0,0-.27.07-.12s0,.06-.07.06a1.32,1.32,0,0,1-1-.09l.51-.2a8.15,8.15,0,0,1,3.85-.5,44.58,44.58,0,0,0,5.17.16,41.58,41.58,0,0,0,5.67.68c1.51.12,2.9.8,4.42.88.67,0,.68.54.75,1,.11.62-.26,1.14-.39,1.71a1.27,1.27,0,0,1-.81.8,5.6,5.6,0,0,1-2.08.06,3.84,3.84,0,0,0-3.53.53.41.41,0,0,1-.11.28c-.3.21-.67.26-1,.44a.12.12,0,0,0-.06.17,4.3,4.3,0,0,1,1.6,0,2.34,2.34,0,0,0,2-.26,8.56,8.56,0,0,1,3.18.34.89.89,0,0,1,.3.52c.07,1-.27,2.09,0,3.13a5.85,5.85,0,0,0,.14,1.56,1.2,1.2,0,0,1-.12.83c-.54.58-1.25.34-1.9.41H59.86c-.74-.07-1.52.17-2.22-.27.13-.81.77-.26,1.14-.43,4,0,8.1,0,12,0-.55-.56-.17-1.39-.28-2,0,.29,0,.67,0,1.06s0,1-.68,1-.74-.56-.75-1.08c0-.75,0-1.51,0-2.27,0,.75,0,1.51,0,2.27S68.87,52.05,68,52c-3,0-6.07,0-9.11,0a36.83,36.83,0,0,1-4,.31c-2.05-.13-4.06.69-6.11.16a.61.61,0,0,0-.23,0,1.89,1.89,0,0,1-1,0l-.1,0a.49.49,0,0,0,0,.12,1,1,0,0,1,0,.3.49.49,0,0,1-.18.25.71.71,0,0,1-.32.07,1.86,1.86,0,0,1-.33,0A11.9,11.9,0,0,1,45.27,53a3.85,3.85,0,0,0-3.45.17c-.23.2-.46.37-.79.22-1.08-1.06-.48-2.2-.15-3.33.13-.29.46-.34.65-.56l3.68-.69a1.22,1.22,0,0,0,.1-.24c-.35-.1-.71,0-1.05-.09S43.56,48.56,43.28,48.26Z"/><path class="cls-93" d="M71.27,38.25c0,.34.33.37.49.64-2.46.35-4.79-.79-7.21-.43a.34.34,0,0,1,0-.48v-.46a.54.54,0,0,1,.48-.18c.18,0,.36.06.54.07,1.8.12,3.58.38,5.36.67A.49.49,0,0,1,71.27,38.25Z"/><path class="cls-94" d="M53,38.68c.06-.5.43-.48.79-.48.71,0,1.43,0,2.13,0s1,.28.92,1a1.53,1.53,0,0,1-1.92,0H53A.33.33,0,0,1,53,38.68Z"/><path class="cls-95" d="M34.76,33.68a1.8,1.8,0,0,1,1.39,1.83c0,1.16.61,2.18.61,3.33,0,.94.29,1.74,1.5,1.57-.06.33-.3.41-.57.46-.8.31-1.19.07-1.21-.81,0-.62-.24-1.22-.24-1.85a10.42,10.42,0,0,0-.7-2.39A3,3,0,0,1,34.76,33.68Z"/><path class="cls-96" d="M56.89,39.68c-1.3-.17-2.56.26-3.86.24.43-1,1.3-.29,1.93-.51a2.87,2.87,0,0,1,1.85-.17,17,17,0,0,0,3.9-.06h0a16.31,16.31,0,0,1,2.88.25.25.25,0,0,1-.11.36c-.5.24-1-.07-1.5,0C60.29,39.71,58.58,39.9,56.89,39.68Z"/><path class="cls-97" d="M30.74,26.44l-.48-.7c.15-.46.71-.49.91-.89a2.23,2.23,0,0,1,.88-.87,2.46,2.46,0,0,1,.75-.25.57.57,0,0,1,.31.05.6.6,0,0,1,.21.58,3.88,3.88,0,0,1-.3.93.93.93,0,0,1-.36.35C31.89,25.6,31.54,26.56,30.74,26.44Z"/><path class="cls-98" d="M41.71,42.26c-.51.84-1.45.78-2.21,1s-1.32.68-2.11.63c-.11,0-.07.25.06.37s0,.3-.23.23c-.32-.26-.78-.44-.48-1a7.27,7.27,0,0,1,2.84-.9,4.33,4.33,0,0,0,1.23-.24Z"/><path class="cls-99" d="M65,37.16h-.45l-10.08,0a.26.26,0,0,1,.11-.37,1.23,1.23,0,0,1,.43-.1c3.09.08,6.19-.27,9.28,0a1.18,1.18,0,0,1,.64.12A.24.24,0,0,1,65,37.16Z"/><path class="cls-100" d="M31.44,25c-.15.62-.81.48-1.18.77-1,.06-2.07.55-2.86-.53l.25-.06a14.85,14.85,0,0,0,2.29-.32,2.89,2.89,0,0,1,1-.1A1.12,1.12,0,0,1,31.44,25Z"/><path class="cls-101" d="M53,38.46v.48c-1.26-.42-2.41.71-3.86.37A5.72,5.72,0,0,1,53,38.46Z"/><path class="cls-102" d="M47.29,40.61c-.5-.52-1.25,0-1.77-.4.94-.53,3.12-.43,3.69.16-.23.28-.57.23-.87.27S47.63,41,47.29,40.61Z"/><path class="cls-103" d="M47.29,40.61a1.61,1.61,0,0,0,1-.23.34.34,0,0,1,0,.49c-.15.35-.47.18-.72.24-.41.23-.89,0-1.31.2l-2.23.3c-.17-.07-.63-.15-.05-.29C45,41,46.17,40.84,47.29,40.61Z"/><path class="cls-104" d="M40.6,42.3a26.59,26.59,0,0,1-4.08,1.14v-.66C37.91,42.88,39.18,42,40.6,42.3Z"/><path class="cls-105" d="M64.52,38v.48a6.61,6.61,0,0,1-3.84,0c.08-.58.53-.48.91-.48Z"/><path class="cls-106" d="M60.52,38.16h3.83c-.07.58-.52.47-.9.48H60.52Z"/><path class="cls-4" d="M60.27,39.41c-1.06.5-2.17.14-3.26.22-.82,0-1.66,0-2.49,0v-.47h1.92C57.69,39.67,59,39.26,60.27,39.41Z"/><path class="cls-107" d="M36.24,38.21a7.8,7.8,0,0,1,.37,1.61c0,.82.33,1.06,1.08.84a.28.28,0,0,1,0,.44c-1.24.44-1.51.33-1.41-.84C36.35,39.56,35.8,38.9,36.24,38.21Z"/><path class="cls-108" d="M30.69,27.76l1,1.1c.25.2.7.28.49.77A3,3,0,0,1,30,27.18C30.42,27.18,30.67,27.35,30.69,27.76Z"/><path class="cls-109" d="M54.52,37.23v.27c-1.5.2-3,.7-4.53.35l2.91-.56A1.42,1.42,0,0,1,54.52,37.23Z"/><path class="cls-110" d="M30.74,26.44c.63-.27,1.05-1,1.82-.94.3.34-.05.35-.23.45-.6.14-.87.72-1.35,1a.77.77,0,0,1-.92,0C29.92,26.38,30.56,26.68,30.74,26.44Z"/><path class="cls-111" d="M34.76,33.68a14.38,14.38,0,0,1,.78,2.14c-.74-.54-1.39-1.12-.94-2.17A.9.9,0,0,1,34.76,33.68Z"/><path class="cls-112" d="M37.52,41.1v-.44l.56-.25c.66.15,1.28-.65,2-.07C39.17,40.5,38.44,41.11,37.52,41.1Z"/><path class="cls-113" d="M32.63,34.73a6.12,6.12,0,0,1-.89-1.79C32.39,33.36,32.88,33.86,32.63,34.73Z"/><path class="cls-114" d="M48.52,40.87v-.49h.95l.79,0A3.67,3.67,0,0,1,48.52,40.87Z"/><path class="cls-115" d="M43.46,39.47a3.56,3.56,0,0,1,1.67-.32C44.61,39.48,44.12,39.89,43.46,39.47Z"/><path class="cls-116" d="M26.18,24.35a2,2,0,0,1,1.24.88C26.9,25.08,26.17,25.24,26.18,24.35Z"/><path class="cls-117" d="M30.06,27,31,27c-.1.26-.19.53-.29.79L30,27.18A.15.15,0,0,0,30.06,27Z"/><path class="cls-34" d="M25,23.1l.29,0c.2.33.41.66.62,1C25.21,24.1,25.08,23.62,25,23.1Z"/><path class="cls-118" d="M52.52,40.12l1.24.08a1.86,1.86,0,0,1-1.66,0Z"/><path class="cls-119" d="M31,31.35a1.2,1.2,0,0,1-.46-.79l0-.27C31.18,30.42,30.93,30.94,31,31.35Z"/><path class="cls-120" d="M33.39,37.25a1.36,1.36,0,0,1-.22-.94C33.51,36.56,33.85,36.81,33.39,37.25Z"/><path class="cls-117" d="M32.17,29.16l-.49-.77c.61-.07.81.24.71.8l-.11,0Z"/><path class="cls-121" d="M72.71,21.15a1.49,1.49,0,0,1-1.23-.42c-.17-.32-.46-.27-.74-.24s-.14-.22-.13-.36c.53-.82,1.37-.58,2.13-.63.78.18,1.57-.38,2.36,0l3.37.76a4.9,4.9,0,0,1-2.89.92C74.62,21,73.67,21.21,72.71,21.15Z"/><path class="cls-98" d="M74.14,32.69c-.14-2.31,1.07-4.3,1.32-6.59.48.24.32.52.41.71l-.48,1.81c0,1.67-.72,3.19-1,4.79a.59.59,0,0,0-.17.1A.65.65,0,0,1,74.14,32.69Z"/><path class="cls-122" d="M81.34,5.48c.56-.36,1.32-.84,1.61,0a3.11,3.11,0,0,1,.3,1.68h-.47a.61.61,0,0,1-.29-.34c0-.1,0-.22-.1-.3a.23.23,0,0,1-.19.23A1.27,1.27,0,0,1,81.34,5.48Z"/><path class="cls-123" d="M82.81,12.39a21.88,21.88,0,0,0-1-4.66.21.21,0,0,1,.06-.27.31.31,0,0,1,.29,0,3,3,0,0,1,.6.9c.1.33.36.61.29,1L83,9.9A3.89,3.89,0,0,1,83,12Z"/><path class="cls-124" d="M74.36,33.41a17.52,17.52,0,0,1,1-4.79c.38.52.11,1.12.19,1.67a2.37,2.37,0,0,0-.64,1.83A1.64,1.64,0,0,1,74.36,33.41Z"/><path class="cls-125" d="M75.1,19.49c-.73.08-1.43.62-2.19.15,1-.8,2.38-.77,3.49-1.37.26-.08.51-.23.78-.3a.4.4,0,0,1,.33.33c-.14.72-.84.43-1.24.68S75.42,19.16,75.1,19.49Z"/><path class="cls-126" d="M79.44,16.63a2.65,2.65,0,0,1,1.34-1.76c.43-.25.28-1.26,1.13-.86a.2.2,0,0,1-.1.21,1.46,1.46,0,0,0-.5.82,5,5,0,0,1-1.56,1.63A.37.37,0,0,1,79.44,16.63Z"/><path class="cls-64" d="M83.05,9.41c-.21-.3-.51-.55-.48-1s-.34-.82-.42-1.26a.43.43,0,0,1,.15-.42l.12-.28a.94.94,0,0,1,.36.76A1.76,1.76,0,0,1,83.05,9.41Z"/><path class="cls-127" d="M79.65,16.61A7.5,7.5,0,0,1,81.31,15c.09,1-.58,1.49-1.41,1.81A.28.28,0,0,1,79.65,16.61Z"/><path class="cls-128" d="M76.37,25.49A9.68,9.68,0,0,1,77.47,23C77.47,24,77.58,25,76.37,25.49Z"/><path class="cls-129" d="M77.51,18.3l-.25-.2c.17-.43.55-.52.94-.59l.49-.18c.09-.1.18-.1.26,0C78.74,18.07,78.07,18.1,77.51,18.3Z"/><path class="cls-130" d="M79,17.34h-.26l.75-.7.21,0,.25.24A1.31,1.31,0,0,1,79,17.34Z"/><path class="cls-123" d="M82.54,13c-.09-.23-.32-.42-.18-.71l.42.25C82.77,12.72,82.8,12.93,82.54,13Z"/><path class="cls-131" d="M81.81,14.22a.67.67,0,0,0,.1-.21.4.4,0,0,0,.15,0c.29.19.23.42,0,.53S81.84,14.36,81.81,14.22Z"/><path class="cls-132" d="M77.72,22.31c.06-.3.15-.58.48-.69C78.12,21.91,78.3,22.38,77.72,22.31Z"/><path class="cls-133" d="M73.52,44.22c.62.08.62.16.62.24-.21.38-.07.9-.62,1.2v4.8a4.52,4.52,0,0,0,1.09,3.36c-.47.25-1-.11-1.43,0-.34-.5-.7-1-1.06-1.48a1.54,1.54,0,0,1,0-.37l.15-.35c.16-2.06,0-4.12.09-6.17,0-.66,0-1.29.81-1.54.36,0,.54-.51.34-.41Z"/><path class="cls-134" d="M74.14,32.69l0,.82c-.17,1.25-.33,2.51-.5,3.76v.16c-.05.35.07.74-.25,1-.77.47-1.41-.43-2.16-.21H71c-1.34-.33-2.74-.31-4.08-.63-.6-.33-1.35.12-1.91-.39l-.39,0c-.81-.21-1.64,0-2.45-.13a.38.38,0,0,1,0-.55,64.47,64.47,0,0,1,8.77,1c.55.08,1,.51,1.59.46s.63-.2.63-.74A15.6,15.6,0,0,1,74.14,32.69Z"/><path class="cls-135" d="M62.15,39.68h1.43a1,1,0,0,1,.74.12l1.44.12c.57.23,1.2,0,1.77.19l3.27.42a1.86,1.86,0,0,1,1.4.36c.25.36.65.05,1,.21a.94.94,0,0,1-.49,1.19c-.11-.71-.38-1.16-1.24-1A2.27,2.27,0,0,1,69.83,41a5.89,5.89,0,0,0-2.74-.62,31.42,31.42,0,0,1-4.94-.47c-.07,0-.1-.1-.07-.15S62.13,39.68,62.15,39.68Z"/><path class="cls-93" d="M73.9,38.7c.23.27.52.64,0,.77s-.92.89-1.49.26c-.27-.32-.18-.68.31-.78s.88.15,1.22-.25Z"/><path class="cls-136" d="M72.66,42.3l.49-1.19c.58.28,1,.6.27,1.18-.1.3-.24.58-.34.88s-.22.86-.82.56Z"/><path class="cls-137" d="M72.94,43c0-.35,0-.7.48-.73.35.25.21.63.25,1l-.14.11C73.23,43.42,72.91,43.51,72.94,43Z"/><path class="cls-138" d="M64.32,39.54c-.27.09-.54.18-.74-.11,0-.09,0-.18,0-.27h1.76C65,39.5,64.55,39.22,64.32,39.54Z"/><path class="cls-139" d="M72.2,40.9l-1.4-.36C71.32,40.44,71.94,40,72.2,40.9Z"/><path class="cls-137" d="M74.14,43.5l-.47.72a.7.7,0,0,1,0-1h0c.12-.1.27-.29.35-.26S74.11,43.32,74.14,43.5Z"/><path class="cls-92" d="M67.53,40.12c-.59,0-1.22.21-1.77-.19A5.07,5.07,0,0,1,67.53,40.12Z"/><path class="cls-140" d="M73.9,38.7l-.28-.32a2.27,2.27,0,0,1,0-1.13l.09,0c.39.43.15.95.21,1.43Z"/><path class="cls-92" d="M73.6,37.25c0,.38,0,.76,0,1.13a.46.46,0,0,0-.19.08C73.47,38.05,73.3,37.62,73.6,37.25Z"/><path class="cls-141" d="M38.9,56.22H37.22c-.62-.43-.47-1.07-.47-1.67.87-1.45.31-3,.46-4.57a5.76,5.76,0,0,1,.21-2c.17.92,1.26.86,1.24,1.76a.29.29,0,0,1,0,.35A1.67,1.67,0,0,0,38,51.56a9.35,9.35,0,0,1-.09,2.24c-.09.24-.06.52-.23.74.3,1.12,1.3,1.06,2.16,1.28C39.67,56.25,39.26,56.19,38.9,56.22Z"/><path class="cls-142" d="M45.36,52.85c.49.07,1-.15,1.46.2a11.86,11.86,0,0,1-4.6.79,10.41,10.41,0,0,1-2.23.21c-.5,0-.86-.23-.88-.74a5.2,5.2,0,0,1,.19-2.87c-.08-.67.37-.73.86-.77s.91-.11,1.37-.16a.45.45,0,0,1-.48.48,2.19,2.19,0,0,0,0,3.34.43.43,0,0,0,.48-.47A7.76,7.76,0,0,1,45.36,52.85Z"/><path class="cls-143" d="M37.22,44.45l.23-.23c.37,1.12,1.67,1.71,1.73,3,0,.32.47.24.71.28a11.4,11.4,0,0,0,1.54.09c-.66.39-1.31,0-1.82.36s-.74.21-1-.19a2.75,2.75,0,0,1-.39-1.19C38.16,45.76,37.44,45.22,37.22,44.45Z"/><path class="cls-144" d="M39.17,50.44a7.63,7.63,0,0,1,0,2.61c-.09.65.14.87.75.8-.3.66-.76.31-1.19.21a.49.49,0,0,1-.48-.24A10,10,0,0,0,38.52,50v-.24C39,49.7,38.93,50.23,39.17,50.44Z"/><path class="cls-145" d="M36.73,47.82c-.68-.46-.78-1.28-1.18-1.92.46,0,.53-.42.71-.72C36.42,46.06,36.58,46.94,36.73,47.82Z"/><path class="cls-146" d="M38.21,46.6c.61.31.13,1.74,1.4,1.38l1.44.1a3.36,3.36,0,0,1-2.18.32C38.32,48.38,38.06,47.37,38.21,46.6Z"/><path class="cls-147" d="M43.28,48.26l1.13.08.26.13a.23.23,0,0,1,0,.26c-1-.28-1.94-.12-2.91-.37Z"/><path class="cls-148" d="M44.68,48.73a.37.37,0,0,1,0-.18,1.93,1.93,0,0,1,1.4,0c-.13.53-.58.17-.85.3Z"/><path class="cls-5" d="M38.66,50.32a3.4,3.4,0,0,1-.25,3.84h-.24a.32.32,0,0,1-.47,0c0-1,0-2,0-2.93C37.64,50.47,38,50.24,38.66,50.32Z"/><path class="cls-31" d="M47.77,55.25h-2.4a2.37,2.37,0,0,0-1.92-1c-.56,0-1.17.22-1.68-.23a7.2,7.2,0,0,1,3.84-.47c-.56.86.13,1,.7,1.13s.94,0,1.4.07C48.38,54.85,47.77,55.09,47.77,55.25Z"/><path class="cls-149" d="M45.61,53.59c-1.25.41-2.6,0-3.84.47-1,.1-1.92.68-2.87,0,.4-.05.84.15,1.19-.21l6.73-.8,0,.09a.21.21,0,0,1,.07.18c0,.06,0,.1,0,.1s-.27.31-.51.16Z"/><path class="cls-144" d="M37.52,54.16H38c-.39.46.36.5.3.89l-.78-.17Z"/><path class="cls-150" d="M47.31,53.1a.5.5,0,0,1,0-.12c.88-.81,1.93-.26,2.9-.35a4.08,4.08,0,0,0,2.27-.05,17.84,17.84,0,0,1,4.44.12A2,2,0,0,0,58.3,53c4.21,0,8.42,0,12.62,0,.51,0,1.41-.33,1.31.8h0a2.21,2.21,0,0,1-1.51.23c-4.54.06-9.08-.12-13.62.19l-.22.06a16.91,16.91,0,0,0-2.24.18c-1.7.27-3.39-.38-5.11-.22-.21,0-.29-.23-.33-.44a.38.38,0,0,1-.11-.38C48.52,53.19,47.82,53.66,47.31,53.1Z"/><path class="cls-31" d="M49.52,53.34v.48c-1-.12-2,.26-2.88-.24l.48-.24A5,5,0,0,1,49.52,53.34Z"/><path class="cls-150" d="M58.91,54.54H56.52V54.3h0a4.41,4.41,0,0,1,3.12,0C59.46,54.58,59.18,54.53,58.91,54.54Z"/><path class="cls-21" d="M72.23,54.16c-.16-.73-.75-.47-1.17-.47-4.34,0-8.68,0-13,0-.42,0-1,.26-1.17-.46a.24.24,0,0,1,.1-.36c4.22.18,8.44.11,12.66.1a6,6,0,0,0,2.59-.23,1.23,1.23,0,0,1,1,1.44Z"/><path class="cls-151" d="M60,54.16H56.88c.15-.73.74-.47,1.16-.47,4.73,0,9.46,0,14.19,0-.08.58-.53.47-.91.48H60Z"/><path class="cls-4" d="M73.67,45.66a2.32,2.32,0,0,1,.47-1.2c0,.4,0,.8,0,1.2Z"/><path class="cls-152" d="M39.12,18.64c-.12-.1-.22-.25-.36-.29a.69.69,0,0,1-.35-1c.28-.38.59,0,.86.23a.86.86,0,0,0,.33.11h0c.19.25.5.3.72.48h.24a2,2,0,0,1,.19.22c.1.2.18.42.43.49a.66.66,0,0,1,.34.25v1C40.19,20.48,39.79,19.34,39.12,18.64Z"/><path class="cls-153" d="M40.52,18.41v-.25h.25c.27,0,.57,0,.75.25a.53.53,0,0,1,0,.75H41C40.77,19,40.72,18.63,40.52,18.41Z"/><path class="cls-92" d="M40.33,18.29c-.34,0-.69,0-.72-.47A.71.71,0,0,1,40.33,18.29Z"/><path class="cls-154" d="M31,25l-.86.06a3.71,3.71,0,0,1-2-.05c0-.07,0-.14,0-.21,1.18.31,1.95-.56,2.88-1l.12.12a1,1,0,0,1,.11.3A.81.81,0,0,1,31,25Z"/><path class="cls-155" d="M29.31,15.92a1.71,1.71,0,0,1-1.68.94l-.29,0A5.37,5.37,0,0,1,29.31,15.92Z"/><path class="cls-156" d="M28.11,25l2,.05a4.71,4.71,0,0,1-2.47.11Z"/><path class="cls-157" d="M82,7.5l-.2.23c-.41-.32-1-.48-1-1.2L81.11,6A1.21,1.21,0,0,1,82,7.5Z"/><path class="cls-158" d="M82.23,7.5A2.76,2.76,0,0,0,81.33,6a.44.44,0,0,0,0-.2c.08-.09.17-.17.25-.25l1,1.2v.48c.11.25,0,.28-.22.23Z"/><path class="cls-159" d="M73.05,2.74a6.42,6.42,0,0,1,2.18.17H72.87Z"/><path class="cls-159" d="M75.1,3.16H73A2.17,2.17,0,0,1,75.1,3.16Z"/><path class="cls-159" d="M70.79,3.89c-.16.77-.78.38-1.2.48A2.39,2.39,0,0,1,70.79,3.89Z"/><path class="cls-160" d="M61.19,8.93c0-.3-.09-.6-.48-.24-1.32.52-2.57-.11-3.81-.35a8,8,0,0,0-3.86,0,6,6,0,0,1-2.4-.2h-1.5c.11-.68.65-.45,1.06-.5a4.08,4.08,0,0,0,1.7-.5c.09,0,.18,1,.18,1h4.56s3.17-.51,4.69.06c.48.18.89.34.82.95C61.76,9.4,61.38,9.57,61.19,8.93Z"/><path class="cls-160" d="M61.52,10.61c-1.41.77-.84-.43-1-1,.8-.78.78,0,1,.48Z"/><path class="cls-161" d="M61.67,9.64c-.22-.35-.42-.75-1-.48H60c.4-.25.8-.45,1.15-.72.26.35.63.21,1,.24Z"/><path class="cls-162" d="M43.21,18.09l-.71-.27c.07-.24-.28-.48,0-.73C42.7,17.44,43.45,17.41,43.21,18.09Z"/><path class="cls-163" d="M42.43,21.65l2.22,1.26a2.77,2.77,0,0,0,2,.8A.76.76,0,0,1,47,24a7.34,7.34,0,0,0,.61.64,2.82,2.82,0,0,0,1.89.54,24.19,24.19,0,0,1,3.07,0c.42,0,1.15-.11.93.78a9.51,9.51,0,0,1-5.61.29.47.47,0,0,1,.42-.15c.18,0,.39-.09.45,0-1,.31-1.81-.51-2.83-.42-1.18.29-2-.65-2.92-1-.48-.51-1.23-.65-1.67-1.21a10.76,10.76,0,0,0-1.94-2.37.83.83,0,0,1-.19-.26c0-.51-.66-1.21.44-1.35.63.08.86.65,1.28,1A2.48,2.48,0,0,0,42.43,21.65Z"/><path class="cls-161" d="M50.64,8.2c1.71.26,3.28-.82,5-.47a19.79,19.79,0,0,1,3.81.84,4,4,0,0,0,1.28.11c-.73.78-1.68.39-2.54.47-.43,0-.86,0-1.29,0a6.45,6.45,0,0,0-3.84,0H49C49.51,8.34,50.5,9.12,50.64,8.2Z"/><path class="cls-164" d="M53.52,26c-.09-.59-.56-.46-.93-.46-1.15,0-2.3,0-3.45,0-.77,0-1.5-.13-1.85-1a.47.47,0,0,1,.3-.1,1.09,1.09,0,0,1,.45.08c.41.22.77.26,1-.23a5,5,0,0,1,1.54-.07,6.76,6.76,0,0,0,3.82-.42,1.71,1.71,0,0,1,.82-.06,1.62,1.62,0,0,1,1.06.32c.42.94-.63.58-.85,1C55,25.81,54.21,25.75,53.52,26Z"/><path class="cls-165" d="M55.44,23.68c-2.2.65-4.47.45-6.71.48a1.4,1.4,0,0,1-1.2,0h-.24a.44.44,0,0,1-.46-.55c.82-.73,1.66,0,2.49-.05a10.23,10.23,0,0,1,2.28.11,2.23,2.23,0,0,0,1.46-.18c.5-.52,1.19-.47,1.82-.62a.75.75,0,0,1,.63.31A.42.42,0,0,1,55.44,23.68Z"/><path class="cls-166" d="M58.08,21.18c.89-1,1.81-1.92,2.66-2.92.27-.33.37-.23.62,0,.77.6.48,1.31.12,1.89a2.21,2.21,0,0,1-1.22,1.06c-.28-.58.29-.9.4-1.42A15.75,15.75,0,0,1,59.47,21a2.31,2.31,0,0,1-.39.31,1.26,1.26,0,0,1-.8.22C58.11,21.47,58,21.39,58.08,21.18Z"/><path class="cls-167" d="M41.51,23.39c.37.56,1.1.64,1.54,1.12a.2.2,0,0,1-.32,0,5.83,5.83,0,0,1-3.65-3.13,5.53,5.53,0,0,0-.67-1c-.18-.29-.23-.56.12-.77.65.17.55.84.84,1.26h0A20,20,0,0,1,41.51,23.39Z"/><path class="cls-168" d="M32.33,26l.23-.45.34-.33c.2-.2.18-.53.4-.73s.26-.64.41-1c0-.14.21-.31.11-.39s-.2.13-.31.2a.57.57,0,0,1-.47.13c-.57-.57-.14-.82.34-1.05s.55-.6,1-.33.4.73.39,1.15A4.92,4.92,0,0,1,32.33,26Z"/><path class="cls-154" d="M31,23.81c-.81-1.28-.77-1.34.76-1.7.68-.15,1.06-1.06,1.93-.81l.53.14c-.24.34-.88.14-.82.69-.61,0-.79.56-1.14.91s-.53,1-1.26.78Z"/><path class="cls-169" d="M58.08,21.18l.26.24a.59.59,0,0,1-.23.63c-1,.59-1.87,1.4-3.13,1.35l-1.92.47c.16-.3,0-.78.63-.79C55.39,23,56.67,22,58.08,21.18Z"/><path class="cls-170" d="M76.59,18.31c-1.12.76-2.46.87-3.68,1.33l-2.3.49c0-.24-.41-.57.18-.63s.89-.54,1.44-.25a8.71,8.71,0,0,0,2.7-.72,4.08,4.08,0,0,1,1.13-.24A.38.38,0,0,1,76.59,18.31Z"/><path class="cls-171" d="M62.15,37a20.77,20.77,0,0,1,2.49.24h-10A2.1,2.1,0,0,1,56.88,37h.95c1.14-.42,2.32-.1,3.48-.2A1.3,1.3,0,0,1,62.15,37Z"/><path class="cls-172" d="M31.12,23.82c.52-.24.77-.73,1.12-1.14s.56-1.08,1.28-.55v.25c0,.33-.7.48-.29.95.23.26,0,.37-.16.5a.16.16,0,0,0-.11,0,1.8,1.8,0,0,0-1,.44.7.7,0,0,1-.79-.17C31.13,24,31.12,23.89,31.12,23.82Z"/><path class="cls-173" d="M38.62,20.12c-.25.19-.2.46-.21.72-.35.2-.17-.14-.24-.24-.14-.52-.52-1.07.24-1.44h.73c.94.23,1.27,1.49,2.39,1.44.32.24.35.48,0,.71s-.49-.11-.72-.24a2.67,2.67,0,0,0-1.11-1c-.19-.06-.44-.09-.55-.22C38.67,19.34,38.83,20.13,38.62,20.12Z"/><path class="cls-174" d="M49.21,24c-.8.22-1.57-.44-2.38-.06,0-.14-.11-.21-.27-.14a1.52,1.52,0,0,1-1.43-.8,9.54,9.54,0,0,1,4.08.78c.08,0,.11.09.08.14S49.24,24,49.21,24Z"/><path class="cls-175" d="M56.88,37l-2.23.22-.09,0-.08,0-1.61.06c-.34-.09-.72.08-1-.16,1.34-.44,2.76-.24,4.11-.57C56.29,36.48,56.78,36.4,56.88,37Z"/><path class="cls-176" d="M59.22,20.86a12.3,12.3,0,0,1,2-1.95c0,1-.7,1.55-1,2.27l-.46.27h-.16C59.36,21.34,59.13,21.22,59.22,20.86Z"/><path class="cls-166" d="M42.73,24.54l.32,0a8.73,8.73,0,0,0,2.7,1c.16.05.34.06.34.29l-.31.16c-.58.34-1.05.62-1.48-.3C44,25.11,43.07,25.19,42.73,24.54Z"/><path class="cls-177" d="M53,9.16c.05-.36.27-.51.67-.47a13.81,13.81,0,0,0,2.49,0c.4,0,.63.1.68.47Z"/><path class="cls-178" d="M33.86,16.37a.49.49,0,0,1,.56-.47h2.72a.5.5,0,0,1,.56.47A6.61,6.61,0,0,1,33.86,16.37Z"/><path class="cls-179" d="M33.86,16.16H37.7c-.05.36-.28.51-.67.47a15,15,0,0,0-2.51,0C34.13,16.67,33.9,16.52,33.86,16.16Z"/><path class="cls-180" d="M49.21,21.65a.49.49,0,0,1,.55-.47h2.72a.5.5,0,0,1,.56.48A6.66,6.66,0,0,1,49.21,21.65Z"/><path class="cls-181" d="M49.21,21.16H53c0,.37-.27.51-.67.47a12.84,12.84,0,0,0-2.48,0C49.48,21.67,49.25,21.53,49.21,21.16Z"/><path class="cls-182" d="M62.52,37.16H61.44c-1.19-.45-2.41-.07-3.6-.38l-.11,0c-.13-.06-.16-.21,0-.21a5.61,5.61,0,0,1,3.16.61Z"/><path class="cls-183" d="M59.8,21.45A5.74,5.74,0,0,1,57.35,24l-.1-.15a4.2,4.2,0,0,1,2.5-2.48Z"/><path class="cls-152" d="M41.53,19.25v-.72a1.78,1.78,0,0,1,1.32-.08.56.56,0,0,1,0,.42C42.57,19.44,42,19.2,41.53,19.25Z"/><path class="cls-184" d="M72.71,21.15a4,4,0,0,1,2.87,0A5.28,5.28,0,0,1,72.71,21.15Z"/><path class="cls-185" d="M46.09,25.81l-.34-.29c1.14-.36,2,.86,3.17.47-.3.35-.69.16-1,.26A7.12,7.12,0,0,1,46.09,25.81Z"/><path class="cls-186" d="M72.23,19.25c-.48.12-.89.6-1.44.25C71.24,19.26,71.55,18.14,72.23,19.25Z"/><path class="cls-187" d="M57.84,37c1.2.1,2.42-.25,3.6.2H57.83C57.83,37.09,57.84,37,57.84,37Z"/><path class="cls-188" d="M45.13,23l1.43.8a1.46,1.46,0,0,1-1.91-.93Z"/><path class="cls-189" d="M55.45,25c0-.62.82-.22.94-.72s.56-.46,1-.25h0C56.8,24.53,56.3,25.11,55.45,25Z"/><path class="cls-152" d="M38.41,18.77c-.43.42-.16,1-.24,1.44-.94.2,0-.69-.45-.78C37.86,19.12,37.65,18.44,38.41,18.77Z"/><path class="cls-190" d="M51.35,26.16H48.78v1h2.56C51.35,26.81,51.35,26.84,51.35,26.16Z"/><path class="cls-191" d="M76.59,18.31l-.53,0c.71-.26,1.28-.94,2.14-.78l-.94.59Z"/><path class="cls-192" d="M40.81,20.68c.31-.11.46.22.72.25.2.36.76.27.9.72A1.75,1.75,0,0,1,40.81,20.68Z"/><path class="cls-193" d="M49.21,24v-.22c.79.1,1.63-.25,2.39.23A8.7,8.7,0,0,1,49.21,24Z"/><path class="cls-194" d="M31.46,21.64c-.16,0-.34,0-.34-.22s.19-.22.34-.22.34,0,.34.22S31.61,21.63,31.46,21.64Z"/><path class="cls-195" d="M70.74,20.49c.4-.4.66-.36.74.24A1,1,0,0,1,70.74,20.49Z"/><path class="cls-196" d="M71.67,46.42l-3.28-.23a.72.72,0,0,1-.68.09,1.3,1.3,0,0,1-.31-.16c-.46-.3-1.22,0-1.46-.75a.48.48,0,0,1,.07-.18,3.21,3.21,0,0,1,2.19-.69c1.18.36,2.39-.08,3.57.13C72.74,45.58,72.72,46,71.67,46.42Z"/><path class="cls-197" d="M58.8,51.93h8.25c2.07,0,1.8.22,1.82-1.88,0-.56,0-1.12,0-1.67,0-.4.06-.73.48-.86.1,0,.27,0,.32,0,.33.38-.22.52-.23.79,0,1.07-.06,2.14,0,3.22,0,.29.25.38.51.35s.39-.25.4-.5c0-.68,0-1.36,0-2a1.86,1.86,0,0,1,.22-1.22c.79,1.3-.51,3,.94,4H58.8c-.08,0-.11-.1-.08-.15S58.77,51.93,58.8,51.93Z"/><path class="cls-198" d="M71.67,46.42c1.09-.53.25-1.14.08-1.72.09-.05.09-.11,0-.18a.57.57,0,0,1-.06-.09,1,1,0,0,0,.56-.7c.51,0,.37-.55.68-.71.18.28.46.23.72.24,0,.32,0,.64,0,1-.7-.09-1,.17-1,.92,0,1.91,0,3.81,0,5.71,0,.4.19.93-.46,1a.4.4,0,0,1-.13-.31c0-.13-.06-.3.13-.38-.19,0-.15.25-.3.29A2.42,2.42,0,0,1,71.75,50a14.15,14.15,0,0,0,0-3.12Z"/><path class="cls-199" d="M58.8,51.9v.24c-.4.06-.85-.15-1.2.22a13.07,13.07,0,0,1-2.24.36,26.64,26.64,0,0,0-3.34.12,2.71,2.71,0,0,1-1.62,0L47.33,53l0-.36c.27-.26.68,0,1-.24s.55-.58.91-.28a2,2,0,0,0,1.82.25A45.61,45.61,0,0,1,58.8,51.9Z"/><path class="cls-200" d="M55.35,52.57l2.25-.21,2.16,0q5.28.26,10.54,0c.56-.21,1.21.24,1.73-.25.06-.12.13-.12.2,0v.24c0,.38-.23.36-.56.38-4.06.22-8.13.08-12.19.07-.86,0-1.72-.28-2.6-.2A1.9,1.9,0,0,1,55.35,52.57Z"/><path class="cls-201" d="M41.05,53.33c-.82.08-1.19-.2-1-1.09A3.37,3.37,0,0,0,40,51.06c-.09-.79.35-1.05,1-1.07a2.37,2.37,0,0,1-.37,1.63C40.17,52.25,41.34,52.66,41.05,53.33Z"/><path class="cls-202" d="M70.3,52.4c-.14.07-.27.2-.41.2H60.18c-.14,0-.28-.13-.42-.2Q65,52.16,70.3,52.4Z"/><path class="cls-203" d="M68.15,44.74c-.76-.07-1.41.38-2.14.45-.15-.08-.63-.19-.28-.31,1.16-.4,2.33-1,3.62-.48C69,44.84,68.57,44.68,68.15,44.74Z"/><path class="cls-201" d="M45.36,52.85H41.53C42.81,52.46,44.08,51.9,45.36,52.85Z"/><path class="cls-204" d="M45.21,50.16H42.1A3.41,3.41,0,0,1,45.21,50.16Z"/><path class="cls-205" d="M68.15,44.74l1.2-.34,2.35,0,.32.16-.27.11C70.55,44.41,69.36,45.33,68.15,44.74Z"/><path class="cls-206" d="M62.52,39.68v.22c-1.38,0-2.77,0-4.15,0-.38,0-.8.13-1.12-.21A33.12,33.12,0,0,1,62.52,39.68Z"/><path class="cls-207" d="M65.94,45.37c.48.49,1.25.05,1.73.54a4.58,4.58,0,0,1-3.12,0C64.89,45.45,65.46,45.52,65.94,45.37Z"/><path class="cls-208" d="M71.75,46.86a4.36,4.36,0,0,1,0,3.12A8.19,8.19,0,0,1,71.75,46.86Z"/><path class="cls-209" d="M64.55,45.93l3.12,0a.68.68,0,0,0,0,.19.64.64,0,0,1-.36.24c-.93-.1-1.88,0-2.8-.19A.24.24,0,0,1,64.55,45.93Z"/><path class="cls-210" d="M64.54,46.15l2.86,0c-.21.54-.58.3-.93.19l-1.89,0a.08.08,0,0,1-.07-.07S64.53,46.19,64.54,46.15Z"/><path class="cls-211" d="M66.47,46.38c.32,0,.67.1.93-.19l.3-.09.69.09C67.82,47,67.14,46.66,66.47,46.38Z"/><path class="cls-212" d="M49.21,53.34h-2.4c0-.07,0-.13,0-.2l.51,0,2,0a.13.13,0,0,1,.09.05C49.45,53.35,49.29,53.31,49.21,53.34Z"/><path class="cls-5" d="M46.06,48.52l-1.4,0-.25-.21C45,48.37,45.54,48.18,46.06,48.52Z"/><path class="cls-213" d="M46.22,41.31a1.93,1.93,0,0,1,1.31-.2C47.14,41.49,46.67,41.3,46.22,41.31Z"/><path class="cls-214" d="M72.23,52.14H72l-.09-.65.2-.34c0,.25.07.5.1.74A1.93,1.93,0,0,0,72.23,52.14Z"/><path class="cls-201" d="M48.24,52.38c-.25.35-.62.2-1,.24C47.5,52.1,47.93,52.5,48.24,52.38Z"/><path class="cls-215" d="M67.05,37.47c1.29.44,2.73.11,4,.79-1.33.22-2.57-.36-3.89-.39-.6,0-1.24-.11-1.86-.13C65.77,37,66.45,37.49,67.05,37.47Z"/><path class="cls-216" d="M67.05,37.47c-.58.15-1.24-.21-1.78.27L65,37.51l0-.27A5.52,5.52,0,0,1,67.05,37.47Z"/><path class="cls-217" d="M32.93,23.83l.16-.5.33-.25c.64-.17.56.22.48.61a1.36,1.36,0,0,1-.5.87c-.15,0-.18-.16-.25-.26S33.12,23.93,32.93,23.83Z"/><path class="cls-156" d="M31,24.16h1a.19.19,0,0,1,.32,0c-.17.39-.87.28-.82.88H31Z"/><path class="cls-154" d="M32.26,24.09l-.32,0c.19-.42.47-.53.88-.27C32.76,24.12,32.43,24,32.26,24.09Z"/><path class="cls-218" d="M33.15,24.3l.25.27a.85.85,0,0,1-.5.6A1.31,1.31,0,0,1,33.15,24.3Z"/><path class="cls-219" d="M82.08,7.48l.22-.23c.3.36.7.68.27,1.2C82.48,8.09,81.93,8,82.08,7.48Z"/><path class="cls-220" d="M55.35,52.57l1.53.06v.23H52.32c-.18.12-.33.15-.42-.09A18.08,18.08,0,0,1,55.35,52.57Z"/><path class="cls-221" d="M51.9,52.78l.42.09a1.84,1.84,0,0,1-1.92,0Z"/><path class="cls-92" d="M40.57,18.53a.73.73,0,0,1,.48.72C40.56,19.23,40.57,18.88,40.57,18.53Z"/><path class="cls-222" d="M41.51,23.39a7.62,7.62,0,0,1-2.14-2.45A4.48,4.48,0,0,1,41.51,23.39Z"/><path class="cls-223" d="M38.62,19.73c0-.17,0-.49.06-.51.47-.16.71.25,1,.49-1.07.16.23.94-.33,1.23C39,20.64,38.91,20.12,38.62,19.73Z"/><path class="cls-224" d="M57.35,24c-.33.05-.71-.09-1,.25a1.69,1.69,0,0,0-1-.24v-.47c.69-.78,1.85-.79,2.54-1.56a4,4,0,0,0,1-1l.2-.18c.18.18.36.36.53.55A9.72,9.72,0,0,0,57.35,24Z"/><path class="cls-163" d="M47.53,24.16h1.2l.59.67Z"/><path class="cls-225" d="M58.08,22.11c-.63.93-1.77.95-2.63,1.47L55,23.4,58,21.78A.2.2,0,0,1,58.08,22.11Z"/><path class="cls-226" d="M58.08,22.11l0-.33.31-.36L59,21A1.64,1.64,0,0,1,58.08,22.11Z"/><path class="cls-227" d="M33.9,23.69c0-.3-.11-.57-.48-.61.23-.25.33-.93.73-.62S34.16,23.3,33.9,23.69Z"/><text class="cls-228" transform="translate(0 77.79)">Cook World</text></g></g></svg>